<svg xmlns="http://www.w3.org/2000/svg" style="display: none;"><symbol id="menu-1" viewBox="0 0 512 512"><title>menu-1</title><g> <g> <path d="M491.318,235.318H20.682C9.26,235.318,0,244.577,0,256s9.26,20.682,20.682,20.682h470.636 c11.423,0,20.682-9.259,20.682-20.682C512,244.578,502.741,235.318,491.318,235.318z"/> </g> </g><g> <g> <path d="M491.318,78.439H20.682C9.26,78.439,0,87.699,0,99.121c0,11.422,9.26,20.682,20.682,20.682h470.636 c11.423,0,20.682-9.26,20.682-20.682C512,87.699,502.741,78.439,491.318,78.439z"/> </g> </g><g> <g> <path d="M491.318,392.197H20.682C9.26,392.197,0,401.456,0,412.879s9.26,20.682,20.682,20.682h470.636 c11.423,0,20.682-9.259,20.682-20.682S502.741,392.197,491.318,392.197z"/> </g> </g></symbol><symbol id="home-black-shape" viewBox="0 0 512 512"><title>home-black-shape</title><path d="M502.625,328.719c-6.25,6.25-14.438,9.375-22.625,9.375s-16.375-3.125-22.625-9.375L448,319.344v155.812H320v-160H192v160 H64V319.344l-9.375,9.375c-12.5,12.5-32.75,12.5-45.25,0s-12.5-32.75,0-45.25L256,36.844l246.625,246.625 C515.125,295.969,515.125,316.219,502.625,328.719z"/></symbol><symbol id="home-1" viewBox="0 0 59.365 59.365"><title>home-1</title><path d="M58.363,26.632l-9.681-8.989V6.365h-8v3.849L29.682,0L1.002,26.632c-0.404,0.376-0.428,1.009-0.052,1.414 c0.375,0.404,1.008,0.427,1.414,0.052l4.319-4.011v3.278v32h16V35.302c0-1.07,0.867-1.937,1.937-1.937h10.126 c1.07,0,1.937,0.867,1.937,1.937v24.063h16v-32v-3.278l4.319,4.011c0.192,0.179,0.437,0.267,0.681,0.267 c0.269,0,0.536-0.107,0.732-0.319C58.791,27.641,58.767,27.008,58.363,26.632z"/></symbol><symbol id="book-with-bookmark" viewBox="0 0 386.182 386.182"><title>book-with-bookmark</title><path d="M287.19,61.03H183.811v92.86c0,3.004-1.785,5.723-4.544,6.915c-0.961,0.415-1.979,0.618-2.987,0.618 c-1.882,0-3.738-0.706-5.164-2.047L147.652,137.3l-23.464,22.076c-2.188,2.059-5.392,2.621-8.15,1.429 c-2.76-1.192-4.544-3.911-4.544-6.915V61.03H92.238c-6.549,0-11.878-5.332-11.878-11.881c0-6.551,5.329-11.881,11.878-11.881 h212.619c10.273,0,18.636-8.359,18.636-18.635C323.492,8.357,315.131,0,304.856,0H92.237c-27.1,0-49.146,22.049-49.146,49.148 v281.135c0,30.823,25.077,55.898,55.9,55.898h188.2c30.823,0,55.9-25.075,55.9-55.898V116.928 C343.091,86.108,318.014,61.03,287.19,61.03z"/></symbol><symbol id="briefcase" viewBox="0 0 512 512"><title>briefcase</title><path d="M469.333,106.667H362.667V85.333c0-23.531-19.135-42.667-42.667-42.667H192c-23.531,0-42.667,19.135-42.667,42.667 v21.333H42.667C19.135,106.667,0,125.802,0,149.333v64C0,236.865,19.135,256,42.667,256h170.667v-10.667 c0-5.896,4.771-10.667,10.667-10.667h64c5.896,0,10.667,4.771,10.667,10.667V256h170.667C492.865,256,512,236.865,512,213.333 v-64C512,125.802,492.865,106.667,469.333,106.667z M320,106.667H192V85.333h128V106.667z"/><path d="M506.083,267.51c-3.635-1.802-7.979-1.385-11.188,1.052c-7.583,5.74-16.417,8.771-25.563,8.771H298.667v32 c0,5.896-4.771,10.667-10.667,10.667h-64c-5.896,0-10.667-4.771-10.667-10.667v-32H42.667c-9.146,0-17.979-3.031-25.563-8.771 c-3.219-2.458-7.552-2.875-11.188-1.052C2.292,269.313,0,273.01,0,277.063v149.604c0,23.531,19.135,42.667,42.667,42.667h426.667 c23.531,0,42.667-19.135,42.667-42.667V277.063C512,273.01,509.708,269.313,506.083,267.51z"/></symbol><symbol id="home-interface" viewBox="0 0 486.406 486.406"><title>home-interface</title><path style="fill:#010002;" d="M481.198,224.116L253.202,26.52c-5.715-4.955-14.197-4.955-19.912,0l-81.288,70.405V68.41 c0-16.781-13.619-30.399-30.399-30.399S91.203,51.63,91.203,68.41v81.197l-85.97,74.509c-6.323,5.502-7.022,15.109-1.52,21.462 c5.533,6.323,15.109,6.992,21.462,1.52L243.201,58.135l217.995,188.963c2.918,2.493,6.414,3.709,9.971,3.709 c4.286,0,8.451-1.794,11.461-5.229C488.22,239.225,487.491,229.679,481.198,224.116z"/><path style="fill:#010002;" d="M262.443,136.14c-5.563-4.59-12.403-6.931-19.243-6.931c-6.84,0-13.68,2.31-19.273,6.931 L71.93,260.747c-7.053,5.776-11.126,14.379-11.126,23.529v148.927c0,16.781,13.619,30.399,30.399,30.399h91.198V311.606h121.598 v151.997h91.198c16.75,0,30.399-13.619,30.399-30.399V284.277c0-9.181-4.104-17.753-11.157-23.499L262.443,136.14z"/></symbol><symbol id="house-black-silhouette-without-door" viewBox="0 0 306.773 306.773"><title>house-black-silhouette-without-door</title><path style="fill:#010002;" d="M302.93,149.794c5.561-6.116,5.024-15.49-1.199-20.932L164.63,8.898 c-6.223-5.442-16.2-5.328-22.292,0.257L4.771,135.258c-6.092,5.585-6.391,14.947-0.662,20.902l3.449,3.592 c5.722,5.955,14.971,6.665,20.645,1.581l10.281-9.207v134.792c0,8.27,6.701,14.965,14.965,14.965h53.624 c8.264,0,14.965-6.695,14.965-14.965v-94.3h68.398v94.3c-0.119,8.264,5.794,14.959,14.058,14.959h56.828 c8.264,0,14.965-6.695,14.965-14.965V154.024c0,0,2.84,2.488,6.343,5.567c3.497,3.073,10.842,0.609,16.403-5.513L302.93,149.794z"/></symbol><symbol id="more" viewBox="0 0 60 60"><title>more</title><path d="M8,22c-4.411,0-8,3.589-8,8s3.589,8,8,8s8-3.589,8-8S12.411,22,8,22z"/><path d="M52,22c-4.411,0-8,3.589-8,8s3.589,8,8,8s8-3.589,8-8S56.411,22,52,22z"/><path d="M30,22c-4.411,0-8,3.589-8,8s3.589,8,8,8s8-3.589,8-8S34.411,22,30,22z"/></symbol><symbol id="world-wide-web" viewBox="0 0 209.281 209.281"><title>world-wide-web</title><path d="M203.456,139.065c3.768-10.786,5.824-22.369,5.824-34.425s-2.056-23.639-5.824-34.425c-0.092-0.324-0.201-0.64-0.333-0.944 C188.589,28.926,149.932,0,104.641,0S20.692,28.926,6.159,69.271c-0.132,0.305-0.242,0.62-0.333,0.944 c-3.768,10.786-5.824,22.369-5.824,34.425s2.056,23.639,5.824,34.425c0.092,0.324,0.201,0.64,0.333,0.944 c14.534,40.346,53.191,69.271,98.482,69.271s83.948-28.926,98.482-69.271C203.255,139.705,203.364,139.39,203.456,139.065z M104.641,194.281c-3.985,0-10.41-7.212-15.78-23.324c-2.592-7.775-4.667-16.713-6.179-26.436H126.6 c-1.512,9.723-3.587,18.66-6.178,26.436C115.051,187.069,108.626,194.281,104.641,194.281z M80.862,129.521 c-0.721-7.998-1.102-16.342-1.102-24.881s0.381-16.883,1.102-24.881h47.557c0.721,7.998,1.102,16.342,1.102,24.881 s-0.381,16.883-1.102,24.881H80.862z M15.001,104.641c0-8.63,1.229-16.978,3.516-24.881h47.3 c-0.701,8.163-1.057,16.529-1.057,24.881s0.355,16.718,1.057,24.881h-47.3C16.23,121.618,15.001,113.271,15.001,104.641z M104.641,15c3.985,0,10.411,7.212,15.781,23.324c2.591,7.775,4.667,16.713,6.178,26.435H82.681 c1.512-9.723,3.587-18.66,6.179-26.435C94.231,22.212,100.656,15,104.641,15z M143.464,79.76h47.3 c2.287,7.903,3.516,16.251,3.516,24.881s-1.229,16.978-3.516,24.881h-47.3c0.701-8.163,1.057-16.529,1.057-24.881 S144.165,87.923,143.464,79.76z M184.903,64.76h-43.16c-2.668-18.397-7.245-34.902-13.666-46.644 C152.972,24.865,173.597,42.096,184.903,64.76z M81.204,18.115C74.783,29.857,70.206,46.362,67.538,64.76h-43.16 C35.685,42.096,56.309,24.865,81.204,18.115z M24.378,144.521h43.16c2.668,18.397,7.245,34.902,13.666,46.645 C56.309,184.416,35.685,167.186,24.378,144.521z M128.077,191.166c6.421-11.742,10.998-28.247,13.666-46.645h43.16 C173.597,167.186,152.972,184.416,128.077,191.166z"/></symbol><symbol id="menu" viewBox="0 0 341.333 341.333"><title>menu</title><rect x="128" y="128" width="85.333" height="85.333"/><rect x="0" y="0" width="85.333" height="85.333"/><rect x="128" y="256" width="85.333" height="85.333"/><rect x="0" y="128" width="85.333" height="85.333"/><rect x="0" y="256" width="85.333" height="85.333"/><rect x="256" y="0" width="85.333" height="85.333"/><rect x="128" y="0" width="85.333" height="85.333"/><rect x="256" y="128" width="85.333" height="85.333"/><rect x="256" y="256" width="85.333" height="85.333"/></symbol><symbol id="camera-diaphragm" viewBox="0 0 510 510"><title>camera-diaphragm</title><path d="M188.7,216.75L311.1,5.1C293.25,2.55,272.85,0,255,0C193.8,0,137.7,20.4,94.35,58.65L188.7,219.3V216.75z M497.25,178.5 c-22.95-73.95-79.05-135.15-153-160.65l-91.8,160.65H497.25z M504.9,204H313.65l7.649,12.75L443.7,428.4 C484.5,382.5,510,321.3,510,255C510,237.15,507.45,219.3,504.9,204z M165.75,255L66.3,81.6C25.5,127.5,0,188.7,0,255 c0,17.85,2.55,35.7,5.1,51h191.25L165.75,255z M12.75,331.5c22.95,73.95,79.05,135.15,153,160.65L260.1,331.5H12.75L12.75,331.5z M298.35,331.5L198.9,504.9c17.85,5.1,35.7,5.1,56.1,5.1c61.2,0,117.3-20.4,160.65-58.65L321.3,290.7L298.35,331.5z"/></symbol><symbol id="theater" viewBox="0 0 512 512"><title>theater</title><path d="M251.29,239.838c-4.215-2.108-9.344-0.401-11.452,3.814c-0.154,0.299-15.13,29.414-52.105,29.414 c-36.582,0-51.482-28.211-52.113-29.449c-2.116-4.198-7.228-5.88-11.435-3.78c-4.215,2.108-5.922,7.228-3.814,11.452 c0.794,1.587,19.977,38.844,67.362,38.844c47.394,0,66.577-37.257,67.371-38.844C257.212,247.066,255.505,241.946,251.29,239.838 z"/><path d="M161.101,137.745c2.534-14.37-13.611-28.39-37.564-32.614c-4.326-0.759-8.644-1.152-12.843-1.152 c-18.398,0-31.599,7.441-33.63,18.961c-2.526,14.37,13.619,28.39,37.572,32.614c4.326,0.768,8.644,1.152,12.834,1.152 C145.877,156.706,159.078,149.265,161.101,137.745z M93.875,125.901c0.171-0.99,5.018-4.855,16.819-4.855 c3.209,0,6.528,0.299,9.873,0.896c16.273,2.867,24.107,10.761,23.731,12.851c-0.171,0.981-5.018,4.847-16.828,4.847 c-3.2,0-6.519-0.299-9.865-0.887C101.333,135.876,93.5,127.991,93.875,125.901z"/><path d="M375.467,59.733c0-50.79-24.764-59.733-76.8-59.733c-16.375,0-29.116,5.248-42.607,10.795 C239.198,17.732,220.075,25.6,187.733,25.6c-32.333,0-51.456-7.868-68.318-14.805C105.924,5.248,93.184,0,76.8,0 C24.772,0,0,8.943,0,59.733c0,112.956,66.27,332.8,187.733,332.8C309.205,392.533,375.467,172.689,375.467,59.733z M187.733,375.467c-105.873,0-170.667-204.416-170.667-315.733c0-35.482,10.052-42.667,59.733-42.667 c13.013,0,23.202,4.198,36.122,9.515c17.425,7.159,39.108,16.085,74.812,16.085c35.712,0,57.395-8.926,74.82-16.085 c12.919-5.316,23.108-9.515,36.113-9.515c49.69,0,59.733,7.185,59.733,42.667C358.4,171.051,293.615,375.467,187.733,375.467z"/><path d="M264.772,103.987c-4.19,0-8.508,0.393-12.834,1.152c-10.257,1.809-19.678,5.598-26.513,10.667 c-8.516,6.323-12.45,14.114-11.059,21.948c2.031,11.511,15.232,18.961,33.63,18.961c4.19,0,8.508-0.384,12.834-1.152 c23.953-4.224,40.107-18.244,37.572-32.623C296.371,111.428,283.17,103.987,264.772,103.987z M257.86,138.761 c-3.337,0.589-6.665,0.887-9.865,0.887c-11.802,0-16.648-3.866-16.828-4.855c-0.068-0.452,0.862-2.628,4.429-5.282 c4.685-3.473,11.716-6.221,19.311-7.561c3.345-0.597,6.664-0.896,9.865-0.896c11.81,0,16.657,3.866,16.819,4.847 C281.967,127.991,274.133,135.893,257.86,138.761z"/><path d="M435.2,119.467c-16.299,0-26.897,4.378-39.159,9.455c-3.396,1.408-7.023,2.91-11.051,4.437 c-4.412,1.664-6.639,6.588-4.966,10.999s6.63,6.63,10.999,4.958c4.216-1.596,7.996-3.157,11.537-4.625 c11.887-4.907,19.738-8.158,32.64-8.158c49.69,0,59.733,7.185,59.733,42.667c0,111.317-64.785,315.733-170.667,315.733 c-39.561,0-80.58-31.787-109.713-85.026c-2.261-4.139-7.45-5.649-11.58-3.396c-4.139,2.27-5.649,7.45-3.388,11.588 C231.757,476.894,278.374,512,324.267,512C445.739,512,512,292.156,512,179.2C512,128.41,487.236,119.467,435.2,119.467z"/><path d="M324.267,358.4c-47.386,0-66.569,37.265-67.362,38.852c-2.108,4.215-0.401,9.344,3.814,11.452s9.344,0.401,11.452-3.814 c0.154-0.299,15.13-29.423,52.096-29.423c36.591,0,51.49,28.211,52.122,29.449c1.502,2.978,4.506,4.685,7.62,4.685 c1.289,0,2.586-0.282,3.814-0.896c4.216-2.108,5.922-7.236,3.814-11.452C390.844,395.665,371.661,358.4,324.267,358.4z"/><path d="M434.168,242.406c-2.031-11.511-15.232-18.953-33.63-18.953c-4.19,0-8.508,0.393-12.834,1.152 c-10.257,1.809-19.678,5.598-26.505,10.667c-8.516,6.323-12.45,14.114-11.068,21.948c2.031,11.511,15.232,18.961,33.63,18.961 c4.19,0,8.508-0.384,12.834-1.152C420.548,270.805,436.702,256.785,434.168,242.406z M383.761,259.115 c-11.802,0-16.649-3.866-16.828-4.855c-0.068-0.452,0.862-2.628,4.429-5.282c4.685-3.473,11.716-6.221,19.311-7.561 c3.345-0.597,6.665-0.896,9.865-0.896c11.81,0,16.657,3.866,16.828,4.847c0.375,2.091-7.458,9.992-23.74,12.86 C390.289,258.816,386.961,259.115,383.761,259.115z"/></symbol><symbol id="house-outline" viewBox="0 0 611.997 611.998"><title>house-outline</title><path d="M511.114,300.251c-9.94,0-17.638,7.663-17.638,17.651v241.105H368.401v-98.453c0-9.236-7.697-17.31-17.002-17.31h-90.435 c-9.948,0-17.96,8.073-17.96,17.31v98.453h-124.76v-233.1c0-9.306-7.69-17.036-17.638-17.036c-9.298,0-16.995,7.73-16.995,17.036 v250.752c0,9.305,7.697,17.036,16.995,17.036h160.358c9.298,0,16.995-7.731,16.995-17.036v-98.454h55.801v98.454 c0,9.305,7.697,17.036,17.639,17.036h159.715c9.299,0,16.995-7.731,16.995-17.036V317.903 C528.109,307.915,520.413,300.251,511.114,300.251z"/><path d="M607.003,314.003L467.819,174.225V78.919c0-9.921-8.019-17.583-17.96-17.583c-9.305,0-17.001,7.663-17.001,17.583v60.345 L318.046,23.774c-3.518-3.558-7.697-5.474-11.864-5.474c-4.81,0-8.983,1.984-12.507,5.474L5.361,312.087 c-6.917,6.91-7.375,17.994,0,24.357c6.411,7.389,17.454,6.91,24.371,0l276.45-275.793l275.807,278.393 c2.873,2.874,7.054,4.516,12.507,4.516c4.81,0,8.976-1.642,12.507-4.516C613.42,332.613,613.899,320.982,607.003,314.003z"/></symbol><symbol id="home" viewBox="0 0 512 512"><title>home</title><g> <g> <path d="M506.555,208.064L263.859,30.367c-4.68-3.426-11.038-3.426-15.716,0L5.445,208.064 c-5.928,4.341-7.216,12.665-2.875,18.593s12.666,7.214,18.593,2.875L256,57.588l234.837,171.943c2.368,1.735,5.12,2.57,7.848,2.57 c4.096,0,8.138-1.885,10.744-5.445C513.771,220.729,512.483,212.405,506.555,208.064z"/> </g> </g><g> <g> <path d="M442.246,232.543c-7.346,0-13.303,5.956-13.303,13.303v211.749H322.521V342.009c0-36.68-29.842-66.52-66.52-66.52 s-66.52,29.842-66.52,66.52v115.587H83.058V245.847c0-7.347-5.957-13.303-13.303-13.303s-13.303,5.956-13.303,13.303v225.053 c0,7.347,5.957,13.303,13.303,13.303h133.029c6.996,0,12.721-5.405,13.251-12.267c0.032-0.311,0.052-0.651,0.052-1.036v-128.89 c0-22.009,17.905-39.914,39.914-39.914s39.914,17.906,39.914,39.914v128.89c0,0.383,0.02,0.717,0.052,1.024 c0.524,6.867,6.251,12.279,13.251,12.279h133.029c7.347,0,13.303-5.956,13.303-13.303V245.847 C455.549,238.499,449.593,232.543,442.246,232.543z"/> </g> </g></symbol></svg>